Amstelvar-Roman-opsz8-wght900-wdth100.ufo
<glyph name="parenleft" format="2">
	<unicode hex="0028"/>
	<advance width="902"/>
	<outline>
		<contour>
			<point x="64" y="507" type="qcurve" smooth="yes"/>
			<point x="64" y="826"/>
			<point x="453" y="1394"/>
			<point x="721" y="1525" type="qcurve"/>
			<point x="853" y="1403" type="line"/>
			<point x="758" y="1271"/>
			<point x="598" y="788"/>
			<point x="598" y="508" type="qcurve" smooth="yes"/>
			<point x="598" y="226"/>
			<point x="759" y="-232"/>
			<point x="854" y="-376" type="qcurve"/>
			<point x="733" y="-510" type="line"/>
			<point x="455" y="-366"/>
			<point x="64" y="186"/>
		</contour>
	</outline>
</glyph>
<glyph name="seven" format="2">
	<unicode hex="0037"/>
	<advance width="1157"/>
	<outline>
		<contour>
			<point x="24" y="916" type="line"/>
			<point x="72" y="1500" type="line"/>
			<point x="1189" y="1500" type="line"/>
			<point x="1189" y="1321" type="line"/>
			<point x="865" y="611" type="line"/>
			<point x="643" y="-12" type="line"/>
			<point x="256" y="-12" type="line"/>
			<point x="256" y="70" type="line"/>
			<point x="665" y="743" type="line"/>
			<point x="904" y="1146" type="line"/>
			<point x="897" y="1156" type="line"/>
			<point x="273" y="1156" type="line"/>
			<point x="181" y="916" type="line"/>
		</contour>
	</outline>
</glyph>
<glyph name="eight" format="2">
	<unicode hex="0038"/>
	<advance width="1338"/>
	<outline>
		<contour>
			<point x="13" y="361" type="qcurve" smooth="yes"/>
			<point x="13" y="551"/>
			<point x="277" y="777"/>
			<point x="556" y="827" type="qcurve"/>
			<point x="681" y="748" type="line"/>
			<point x="578" y="688"/>
			<point x="484" y="459"/>
			<point x="484" y="336" type="qcurve" smooth="yes"/>
			<point x="484" y="236"/>
			<point x="576" y="144"/>
			<point x="649" y="144" type="qcurve" smooth="yes"/>
			<point x="730" y="144"/>
			<point x="822" y="250"/>
			<point x="822" y="346" type="qcurve" smooth="yes"/>
			<point x="822" y="434"/>
			<point x="689" y="573"/>
			<point x="530" y="639" type="qcurve" smooth="yes"/>
			<point x="291" y="732"/>
			<point x="111" y="963"/>
			<point x="115" y="1137" type="qcurve" smooth="yes"/>
			<point x="119" y="1308"/>
			<point x="407" y="1515"/>
			<point x="674" y="1515" type="qcurve" smooth="yes"/>
			<point x="940" y="1515"/>
			<point x="1218" y="1355"/>
			<point x="1218" y="1199" type="qcurve" smooth="yes"/>
			<point x="1218" y="1066"/>
			<point x="991" y="848"/>
			<point x="785" y="783" type="qcurve"/>
			<point x="628" y="855" type="line"/>
			<point x="725" y="913"/>
			<point x="828" y="1098"/>
			<point x="828" y="1189" type="qcurve" smooth="yes"/>
			<point x="828" y="1270"/>
			<point x="743" y="1332"/>
			<point x="684" y="1332" type="qcurve" smooth="yes"/>
			<point x="625" y="1332"/>
			<point x="548" y="1273"/>
			<point x="548" y="1207" type="qcurve" smooth="yes"/>
			<point x="548" y="1125"/>
			<point x="652" y="1012"/>
			<point x="863" y="935" type="qcurve" smooth="yes"/>
			<point x="1080" y="857"/>
			<point x="1324" y="607"/>
			<point x="1324" y="414" type="qcurve" smooth="yes"/>
			<point x="1324" y="223"/>
			<point x="991" y="-30"/>
			<point x="663" y="-30" type="qcurve" smooth="yes"/>
			<point x="335" y="-30"/>
			<point x="13" y="184"/>
		</contour>
	</outline>
</glyph>
<glyph name="question" format="2">
	<unicode hex="003F"/>
	<advance width="1232"/>
	<outline>
		<contour>
			<point x="259" y="192" type="qcurve" smooth="yes"/>
			<point x="259" y="281"/>
			<point x="390" y="407"/>
			<point x="495" y="407" type="qcurve" smooth="yes"/>
			<point x="599" y="407"/>
			<point x="730" y="281"/>
			<point x="730" y="192" type="qcurve" smooth="yes"/>
			<point x="730" y="104"/>
			<point x="599" y="-22"/>
			<point x="495" y="-22" type="qcurve" smooth="yes"/>
			<point x="390" y="-22"/>
			<point x="259" y="104"/>
		</contour>
		<contour>
			<point x="68" y="1137" type="qcurve" smooth="yes"/>
			<point x="68" y="1285"/>
			<point x="344" y="1524"/>
			<point x="617" y="1524" type="qcurve" smooth="yes"/>
			<point x="904" y="1524"/>
			<point x="1188" y="1333"/>
			<point x="1188" y="1164" type="qcurve" smooth="yes"/>
			<point x="1188" y="1012"/>
			<point x="1067" y="820"/>
			<point x="923" y="759" type="qcurve" smooth="yes"/>
			<point x="793" y="704"/>
			<point x="560" y="615"/>
			<point x="560" y="532" type="qcurve" smooth="yes"/>
			<point x="560" y="495" type="line"/>
			<point x="374" y="495" type="line"/>
			<point x="367" y="579" type="line" smooth="yes"/>
			<point x="352" y="709"/>
			<point x="453" y="909"/>
			<point x="574" y="974" type="qcurve" smooth="yes"/>
			<point x="653" y="1015"/>
			<point x="712" y="1109"/>
			<point x="712" y="1180" type="qcurve" smooth="yes"/>
			<point x="712" y="1250"/>
			<point x="617" y="1328"/>
			<point x="515" y="1328" type="qcurve" smooth="yes"/>
			<point x="398" y="1328"/>
			<point x="294" y="1270"/>
			<point x="294" y="1214" type="qcurve" smooth="yes"/>
			<point x="294" y="1172"/>
			<point x="416" y="1092"/>
			<point x="416" y="1022" type="qcurve" smooth="yes"/>
			<point x="416" y="965"/>
			<point x="341" y="885"/>
			<point x="267" y="885" type="qcurve" smooth="yes"/>
			<point x="177" y="885"/>
			<point x="68" y="1029"/>
		</contour>
	</outline>
</glyph>
<glyph name="o" format="2">
	<unicode hex="006F"/>
	<advance width="1631"/>
	<outline>
		<contour>
			<point x="52" y="550" type="qcurve" smooth="yes"/>
			<point x="52" y="810"/>
			<point x="472" y="1126"/>
			<point x="813" y="1126" type="qcurve" smooth="yes"/>
			<point x="1157" y="1126"/>
			<point x="1579" y="831"/>
			<point x="1579" y="556" type="qcurve" smooth="yes"/>
			<point x="1579" y="297"/>
			<point x="1164" y="-27"/>
			<point x="821" y="-27" type="qcurve" smooth="yes"/>
			<point x="478" y="-27"/>
			<point x="52" y="274"/>
		</contour>
		<contour>
			<point x="607" y="562" type="qcurve" smooth="yes"/>
			<point x="608" y="340"/>
			<point x="715" y="164"/>
			<point x="812" y="164" type="qcurve" smooth="yes"/>
			<point x="916" y="164"/>
			<point x="1019" y="321"/>
			<point x="1019" y="549" type="qcurve" smooth="yes"/>
			<point x="1019" y="764"/>
			<point x="911" y="917"/>
			<point x="813" y="917" type="qcurve" smooth="yes"/>
			<point x="708" y="917"/>
			<point x="606" y="782"/>
		</contour>
	</outline>
</glyph>
<glyph name="periodcentered" format="2">
	<unicode hex="00B7"/>
	<advance width="703"/>
	<outline>
		<contour>
			<point x="87" y="676" type="qcurve" smooth="yes"/>
			<point x="87" y="775"/>
			<point x="235" y="926"/>
			<point x="351" y="926" type="qcurve" smooth="yes"/>
			<point x="466" y="926"/>
			<point x="615" y="775"/>
			<point x="615" y="676" type="qcurve" smooth="yes"/>
			<point x="615" y="580"/>
			<point x="465" y="429"/>
			<point x="351" y="429" type="qcurve" smooth="yes"/>
			<point x="237" y="429"/>
			<point x="87" y="580"/>
		</contour>
	</outline>
</glyph>
<glyph name="guillemetright" format="2">
	<unicode hex="00BB"/>
	<advance width="1617"/>
	<outline>
		<contour>
			<point x="1572" y="581" type="line"/>
			<point x="1506" y="520"/>
			<point x="1129" y="237"/>
			<point x="1049" y="174" type="qcurve" smooth="yes"/>
			<point x="902" y="58"/>
			<point x="782" y="255"/>
			<point x="887" y="353" type="qcurve" smooth="yes"/>
			<point x="983" y="443"/>
			<point x="1146" y="589"/>
			<point x="1180" y="621" type="qcurve"/>
			<point x="1137" y="661"/>
			<point x="966" y="820"/>
			<point x="883" y="896" type="qcurve" smooth="yes"/>
			<point x="767" y="1001"/>
			<point x="902" y="1178"/>
			<point x="1035" y="1079" type="qcurve" smooth="yes"/>
			<point x="1103" y="1029"/>
			<point x="1500" y="720"/>
			<point x="1572" y="662" type="qcurve"/>
		</contour>
		<contour>
			<point x="872" y="581" type="line"/>
			<point x="806" y="520"/>
			<point x="429" y="237"/>
			<point x="349" y="174" type="qcurve" smooth="yes"/>
			<point x="202" y="58"/>
			<point x="82" y="255"/>
			<point x="187" y="353" type="qcurve" smooth="yes"/>
			<point x="283" y="443"/>
			<point x="446" y="589"/>
			<point x="480" y="621" type="qcurve"/>
			<point x="437" y="661"/>
			<point x="266" y="820"/>
			<point x="183" y="896" type="qcurve" smooth="yes"/>
			<point x="67" y="1001"/>
			<point x="202" y="1178"/>
			<point x="335" y="1079" type="qcurve" smooth="yes"/>
			<point x="403" y="1029"/>
			<point x="800" y="720"/>
			<point x="872" y="662" type="qcurve"/>
		</contour>
	</outline>
</glyph>
<glyph name="multiply" format="2">
	<unicode hex="00D7"/>
	<advance width="1083"/>
	<outline>
		<contour>
			<point x="295" y="168" type="line"/>
			<point x="78" y="386" type="line"/>
			<point x="789" y="1097" type="line"/>
			<point x="1006" y="879" type="line"/>
		</contour>
		<contour>
			<point x="789" y="168" type="line"/>
			<point x="78" y="879" type="line"/>
			<point x="295" y="1097" type="line"/>
			<point x="1006" y="386" type="line"/>
		</contour>
	</outline>
</glyph>
<glyph name="germandbls" format="2">
	<unicode hex="00DF"/>
	<advance width="1865"/>
	<outline>
		<contour>
			<point x="1486" y="1248" type="qcurve" smooth="yes"/>
			<point x="1486" y="1150"/>
			<point x="1390" y="1032"/>
			<point x="1314" y="974" type="qcurve" smooth="yes"/>
			<point x="1243" y="920"/>
			<point x="1194" y="882"/>
			<point x="1194" y="862" type="qcurve" smooth="yes"/>
			<point x="1194" y="842"/>
			<point x="1236" y="813"/>
			<point x="1441" y="747" type="qcurve" smooth="yes"/>
			<point x="1652" y="676"/>
			<point x="1825" y="482"/>
			<point x="1825" y="356" type="qcurve" smooth="yes"/>
			<point x="1825" y="177"/>
			<point x="1566" y="-24"/>
			<point x="1324" y="-24" type="qcurve" smooth="yes"/>
			<point x="1202" y="-24"/>
			<point x="1030" y="3"/>
			<point x="967" y="31" type="qcurve"/>
			<point x="945" y="0" type="line"/>
			<point x="777" y="0" type="line"/>
			<point x="777" y="385" type="line"/>
			<point x="973" y="385" type="line"/>
			<point x="997" y="264" type="line" smooth="yes"/>
			<point x="1004" y="231"/>
			<point x="1109" y="173"/>
			<point x="1221" y="173" type="qcurve" smooth="yes"/>
			<point x="1321" y="173"/>
			<point x="1375" y="212"/>
			<point x="1375" y="246" type="qcurve" smooth="yes"/>
			<point x="1375" y="280"/>
			<point x="1300" y="322"/>
			<point x="1146" y="371" type="qcurve" smooth="yes"/>
			<point x="987" y="422"/>
			<point x="776" y="609"/>
			<point x="776" y="724" type="qcurve" smooth="yes"/>
			<point x="776" y="820"/>
			<point x="877" y="936"/>
			<point x="944" y="981" type="qcurve" smooth="yes"/>
			<point x="1007" y="1023"/>
			<point x="1069" y="1117"/>
			<point x="1069" y="1182" type="qcurve" smooth="yes"/>
			<point x="1069" y="1238"/>
			<point x="983" y="1307"/>
			<point x="901" y="1307" type="qcurve" smooth="yes"/>
			<point x="807" y="1307"/>
			<point x="715" y="1212"/>
			<point x="716" y="1123" type="qcurve" smooth="yes"/>
			<point x="720" y="552" type="line"/>
			<point x="720" y="54" type="line"/>
			<point x="659" y="-20" type="line"/>
			<point x="35" y="0" type="line"/>
			<point x="35" y="177" type="line"/>
			<point x="177" y="212" type="line"/>
			<point x="186" y="552" type="line"/>
			<point x="181" y="1076" type="line" smooth="yes"/>
			<point x="180" y="1264"/>
			<point x="445" y="1533"/>
			<point x="827" y="1533" type="qcurve" smooth="yes"/>
			<point x="1196" y="1533"/>
			<point x="1486" y="1379"/>
		</contour>
	</outline>
</glyph>
<glyph name="caron" format="2">
	<unicode hex="02C7"/>
	<advance width="1024"/>
	<outline>
		<contour>
			<point x="512" y="1241" type="qcurve" smooth="yes"/>
			<point x="452" y="1241"/>
			<point x="389" y="1272"/>
			<point x="315" y="1353" type="qcurve" smooth="yes"/>
			<point x="96" y="1614" type="line"/>
			<point x="230" y="1722" type="line"/>
			<point x="512" y="1499" type="line"/>
			<point x="794" y="1722" type="line"/>
			<point x="928" y="1614" type="line"/>
			<point x="709" y="1353" type="line" smooth="yes"/>
			<point x="649" y="1282"/>
			<point x="567" y="1241"/>
		</contour>
	</outline>
</glyph>
<glyph name="ogonek" format="2">
	<unicode hex="02DB"/>
	<advance width="1024"/>
	<outline>
		<contour>
			<point x="454" y="-258" type="qcurve" smooth="yes"/>
			<point x="454" y="-316"/>
			<point x="532" y="-375"/>
			<point x="591" y="-375" type="qcurve" smooth="yes"/>
			<point x="648" y="-375"/>
			<point x="751" y="-331"/>
			<point x="821" y="-283" type="qcurve"/>
			<point x="892" y="-398" type="line"/>
			<point x="835" y="-455"/>
			<point x="621" y="-539"/>
			<point x="512" y="-539" type="qcurve" smooth="yes"/>
			<point x="392" y="-539"/>
			<point x="221" y="-435"/>
			<point x="221" y="-333" type="qcurve" smooth="yes"/>
			<point x="221" y="-223"/>
			<point x="381" y="-50"/>
			<point x="477" y="18" type="qcurve" smooth="yes"/>
			<point x="506" y="38" type="line"/>
			<point x="621" y="-21" type="line"/>
			<point x="606" y="-34" type="line" smooth="yes"/>
			<point x="534" y="-97"/>
			<point x="454" y="-215"/>
		</contour>
	</outline>
</glyph>
<glyph name="beta" format="2">
	<unicode hex="03B2"/>
	<advance width="1780"/>
	<outline>
		<contour>
			<point x="180" y="-480" type="line"/>
			<point x="142" y="-453" type="line"/>
			<point x="148" y="162" type="line"/>
			<point x="146" y="894" type="line" smooth="yes"/>
			<point x="146" y="1240"/>
			<point x="554" y="1593"/>
			<point x="908" y="1593" type="qcurve" smooth="yes"/>
			<point x="1244" y="1593"/>
			<point x="1581" y="1345"/>
			<point x="1581" y="1136" type="qcurve"/>
			<point x="1581" y="956"/>
			<point x="1200" y="655"/>
			<point x="848" y="641" type="qcurve" smooth="yes"/>
			<point x="784" y="639" type="line"/>
			<point x="761" y="692" type="line"/>
			<point x="864" y="1019" type="line"/>
			<point x="943" y="1010" type="line" smooth="yes"/>
			<point x="1363" y="945"/>
			<point x="1686" y="657"/>
			<point x="1686" y="465" type="qcurve" smooth="yes"/>
			<point x="1686" y="243"/>
			<point x="1336" y="-27"/>
			<point x="1079" y="-27" type="qcurve"/>
			<point x="903" y="-27"/>
			<point x="629" y="36"/>
			<point x="566" y="116" type="qcurve"/>
			<point x="567" y="295" type="line"/>
			<point x="604" y="295" type="line"/>
			<point x="617" y="249"/>
			<point x="765" y="175"/>
			<point x="860" y="175" type="qcurve"/>
			<point x="1004" y="175"/>
			<point x="1143" y="322"/>
			<point x="1143" y="457" type="qcurve" smooth="yes"/>
			<point x="1143" y="586"/>
			<point x="1019" y="722"/>
			<point x="889" y="773" type="qcurve"/>
			<point x="909" y="829" type="line"/>
			<point x="1007" y="841"/>
			<point x="1131" y="954"/>
			<point x="1131" y="1079" type="qcurve"/>
			<point x="1131" y="1230"/>
			<point x="1018" y="1366"/>
			<point x="895" y="1366" type="qcurve"/>
			<point x="735" y="1366"/>
			<point x="626" y="1193"/>
			<point x="625" y="996" type="qcurve" smooth="yes"/>
			<point x="627" y="114" type="line"/>
			<point x="694" y="-443" type="line"/>
		</contour>
	</outline>
</glyph>
<glyph name="epsilon" format="2">
	<unicode hex="03B5"/>
	<advance width="1420"/>
	<outline>
		<contour>
			<point x="725" y="-29" type="qcurve" smooth="yes"/>
			<point x="381" y="-29"/>
			<point x="73" y="144"/>
			<point x="72" y="308" type="qcurve"/>
			<point x="72" y="508"/>
			<point x="508" y="665"/>
			<point x="855" y="683" type="qcurve" smooth="yes"/>
			<point x="1002" y="694" type="line"/>
			<point x="1032" y="645" type="line"/>
			<point x="926" y="374" type="line"/>
			<point x="818" y="389" type="line" smooth="yes"/>
			<point x="513" y="430"/>
			<point x="129" y="611"/>
			<point x="130" y="783" type="qcurve"/>
			<point x="130" y="952"/>
			<point x="455" y="1135"/>
			<point x="779" y="1135" type="qcurve" smooth="yes"/>
			<point x="991" y="1135"/>
			<point x="1284" y="1060"/>
			<point x="1363" y="1002" type="qcurve"/>
			<point x="1365" y="647" type="line"/>
			<point x="1184" y="645" type="line"/>
			<point x="1150" y="831" type="line"/>
			<point x="1132" y="853"/>
			<point x="1006" y="892"/>
			<point x="916" y="892" type="qcurve" smooth="yes"/>
			<point x="783" y="892"/>
			<point x="637" y="832"/>
			<point x="637" y="765" type="qcurve" smooth="yes"/>
			<point x="637" y="705"/>
			<point x="732" y="653"/>
			<point x="885" y="638" type="qcurve"/>
			<point x="886" y="506" type="line"/>
			<point x="778" y="513"/>
			<point x="618" y="433"/>
			<point x="618" y="356" type="qcurve" smooth="yes"/>
			<point x="618" y="273"/>
			<point x="764" y="207"/>
			<point x="891" y="207" type="qcurve" smooth="yes"/>
			<point x="1026" y="207"/>
			<point x="1258" y="312"/>
			<point x="1311" y="362" type="qcurve"/>
			<point x="1454" y="204" type="line"/>
			<point x="1357" y="93"/>
			<point x="967" y="-29"/>
		</contour>
	</outline>
	<anchor name="GRKtop" x="786" y="1105"/>
</glyph>
<glyph name="mu" format="2">
	<unicode hex="03BC"/>
	<advance width="1805"/>
	<outline>
		<contour>
			<point x="185" y="-480" type="line"/>
			<point x="146" y="-453" type="line"/>
			<point x="145" y="252" type="line"/>
			<point x="135" y="1080" type="line"/>
			<point x="650" y="1116" type="line"/>
			<point x="689" y="1089" type="line"/>
			<point x="685" y="428" type="line" smooth="yes"/>
			<point x="685" y="353"/>
			<point x="747" y="251"/>
			<point x="845" y="251" type="qcurve" smooth="yes"/>
			<point x="915" y="251"/>
			<point x="1032" y="308"/>
			<point x="1071" y="381" type="qcurve"/>
			<point x="1068" y="505" type="line"/>
			<point x="1060" y="1080" type="line"/>
			<point x="1575" y="1116" type="line"/>
			<point x="1614" y="1089" type="line"/>
			<point x="1610" y="557" type="line"/>
			<point x="1609" y="304"/>
			<point x="1635" y="232"/>
			<point x="1685" y="233" type="qcurve" smooth="yes"/>
			<point x="1779" y="233" type="line"/>
			<point x="1779" y="33" type="line"/>
			<point x="1470" y="-15" type="line"/>
			<point x="1336" y="-17"/>
			<point x="1177" y="65"/>
			<point x="1144" y="143" type="qcurve"/>
			<point x="1143" y="143" type="line"/>
			<point x="1087" y="63"/>
			<point x="910" y="-15"/>
			<point x="818" y="-15" type="qcurve" smooth="yes"/>
			<point x="751" y="-15"/>
			<point x="673" y="-4"/>
			<point x="649" y="9" type="qcurve"/>
			<point x="700" y="-443" type="line"/>
		</contour>
	</outline>
</glyph>
<glyph name="sigma" format="2">
	<unicode hex="03C3"/>
	<advance width="1744"/>
	<outline>
		<contour>
			<point x="821" y="-28" type="qcurve" smooth="yes"/>
			<point x="441" y="-28"/>
			<point x="57" y="267"/>
			<point x="57" y="515" type="qcurve" smooth="yes"/>
			<point x="57" y="774"/>
			<point x="476" y="1072"/>
			<point x="955" y="1085" type="qcurve" smooth="yes"/>
			<point x="1715" y="1106" type="line"/>
			<point x="1755" y="1080" type="line"/>
			<point x="1715" y="738" type="line"/>
			<point x="1094" y="746" type="line" smooth="yes"/>
			<point x="862" y="749"/>
			<point x="624" y="618"/>
			<point x="624" y="425" type="qcurve"/>
			<point x="624" y="306"/>
			<point x="713" y="172"/>
			<point x="811" y="172" type="qcurve" smooth="yes"/>
			<point x="913" y="172"/>
			<point x="996" y="332"/>
			<point x="996" y="466" type="qcurve"/>
			<point x="996" y="631"/>
			<point x="920" y="774"/>
			<point x="834" y="833" type="qcurve"/>
			<point x="834" y="944" type="line"/>
			<point x="1007" y="946" type="line"/>
			<point x="1257" y="856"/>
			<point x="1541" y="620"/>
			<point x="1541" y="459" type="qcurve" smooth="yes"/>
			<point x="1541" y="242"/>
			<point x="1158" y="-28"/>
		</contour>
	</outline>
</glyph>
<glyph name="Be" format="2">
  <advance width="1726"/>
  <unicode hex="0411"/>
  <outline>
    <contour>
      <point x="1122" y="457" type="qcurve" smooth="yes"/>
      <point x="1122" y="584"/>
      <point x="1011" y="699"/>
      <point x="886" y="699" type="qcurve" smooth="yes"/>
      <point x="749" y="699" type="line"/>
      <point x="759" y="702" type="line"/>
      <point x="761" y="220" type="line"/>
      <point x="795" y="200" type="line"/>
      <point x="874" y="200" type="line" smooth="yes"/>
      <point x="1005" y="200"/>
      <point x="1122" y="318"/>
    </contour>
    <contour>
      <point x="42" y="0" type="line"/>
      <point x="42" y="180" type="line"/>
      <point x="220" y="215" type="line"/>
      <point x="222" y="764" type="line"/>
      <point x="220" y="1272" type="line"/>
      <point x="42" y="1306" type="line"/>
      <point x="42" y="1500" type="line"/>
      <point x="1510" y="1500" type="line"/>
      <point x="1510" y="1042" type="line"/>
      <point x="1313" y="1042" type="line"/>
      <point x="1274" y="1292" type="line"/>
      <point x="806" y="1292" type="line"/>
      <point x="762" y="1268" type="line"/>
      <point x="760" y="900" type="line"/>
      <point x="753" y="904" type="line"/>
      <point x="1018" y="904" type="line" smooth="yes"/>
      <point x="1373" y="904"/>
      <point x="1666" y="668"/>
      <point x="1666" y="449" type="qcurve" smooth="yes"/>
      <point x="1666" y="265"/>
      <point x="1424" y="0"/>
      <point x="1135" y="0" type="qcurve"/>
    </contour>
  </outline>
</glyph>
<glyph name="De" format="2">
  <advance width="1827"/>
  <unicode hex="0414"/>
  <outline>
    <contour>
      <point x="1573" y="-338" type="line"/>
      <point x="1474" y="0" type="line"/>
      <point x="311" y="0" type="line"/>
      <point x="212" y="-338" type="line"/>
      <point x="10" y="-338" type="line"/>
      <point x="20" y="208" type="line"/>
      <point x="1765" y="208" type="line"/>
      <point x="1775" y="-338" type="line"/>
    </contour>
    <contour>
      <point x="340" y="959" type="qcurve" smooth="yes"/>
      <point x="348" y="1272" type="line"/>
      <point x="170" y="1306" type="line"/>
      <point x="170" y="1500" type="line"/>
      <point x="1765" y="1500" type="line"/>
      <point x="1765" y="1306" type="line"/>
      <point x="1587" y="1272" type="line"/>
      <point x="1585" y="754" type="line"/>
      <point x="1587" y="0" type="line"/>
      <point x="1042" y="0" type="line"/>
      <point x="1044" y="754" type="line"/>
      <point x="1042" y="1266" type="line"/>
      <point x="1003" y="1292" type="line"/>
      <point x="638" y="1292" type="line"/>
      <point x="599" y="1266" type="line"/>
      <point x="590" y="936" type="line" smooth="yes"/>
      <point x="581" y="620"/>
      <point x="497" y="235"/>
      <point x="442" y="128" type="qcurve"/>
      <point x="153" y="128" type="line"/>
      <point x="224" y="230"/>
      <point x="331.6566849833" y="632.567799973"/>
    </contour>
  </outline>
</glyph>
<glyph name="Sha" format="2">
  <advance width="2861"/>
  <unicode hex="0428"/>
  <outline>
    <contour>
      <point x="1703" y="234" type="line"/>
      <point x="1752" y="208" type="line"/>
      <point x="2047" y="208" type="line"/>
      <point x="2096" y="234" type="line"/>
      <point x="2098" y="746" type="line"/>
      <point x="2096" y="1272" type="line"/>
      <point x="1950" y="1306" type="line"/>
      <point x="1950" y="1500" type="line"/>
      <point x="2819" y="1500" type="line"/>
      <point x="2819" y="1306" type="line"/>
      <point x="2641" y="1272" type="line"/>
      <point x="2639" y="746" type="line"/>
      <point x="2641" y="215" type="line"/>
      <point x="2819" y="180" type="line"/>
      <point x="2819" y="0" type="line"/>
      <point x="42" y="0" type="line"/>
      <point x="42" y="180" type="line"/>
      <point x="220" y="215" type="line"/>
      <point x="222" y="746" type="line"/>
      <point x="220" y="1272" type="line"/>
      <point x="42" y="1306" type="line"/>
      <point x="42" y="1500" type="line"/>
      <point x="911" y="1500" type="line"/>
      <point x="911" y="1306" type="line"/>
      <point x="765" y="1272" type="line"/>
      <point x="763" y="746" type="line"/>
      <point x="765" y="234" type="line"/>
      <point x="814" y="208" type="line"/>
      <point x="1109" y="208" type="line"/>
      <point x="1158" y="234" type="line"/>
      <point x="1160" y="746" type="line"/>
      <point x="1158" y="1272" type="line"/>
      <point x="1012" y="1306" type="line"/>
      <point x="1012" y="1500" type="line"/>
      <point x="1849" y="1500" type="line"/>
      <point x="1849" y="1306" type="line"/>
      <point x="1703" y="1272" type="line"/>
      <point x="1701" y="746" type="line"/>
    </contour>
  </outline>
</glyph>
<glyph name="be" format="2">
  <advance width="1631"/>
  <unicode hex="0431"/>
  <outline>
    <contour>
      <point x="814" y="164" type="qcurve" smooth="yes"/>
      <point x="920" y="164"/>
      <point x="1019" y="326"/>
      <point x="1019" y="475" type="qcurve" smooth="yes"/>
      <point x="1019" y="595"/>
      <point x="932" y="727"/>
      <point x="834" y="727" type="qcurve" smooth="yes"/>
      <point x="737" y="727"/>
      <point x="556" y="562"/>
      <point x="501" y="433" type="qcurve"/>
      <point x="500" y="665" type="line"/>
      <point x="537" y="798"/>
      <point x="842" y="1012"/>
      <point x="1087" y="1012" type="qcurve" smooth="yes"/>
      <point x="1304" y="1012"/>
      <point x="1579" y="753"/>
      <point x="1579" y="524" type="qcurve" smooth="yes"/>
      <point x="1579" y="250"/>
      <point x="1163" y="-27"/>
      <point x="814" y="-27" type="qcurve" smooth="yes"/>
      <point x="430" y="-27"/>
      <point x="52" y="303"/>
      <point x="52" y="604" type="qcurve" smooth="yes"/>
      <point x="52" y="979"/>
      <point x="610" y="1416"/>
      <point x="1110" y="1470" type="qcurve" smooth="yes"/>
      <point x="1193" y="1479"/>
      <point x="1305" y="1502"/>
      <point x="1321" y="1537" type="qcurve"/>
      <point x="1515" y="1537" type="line"/>
      <point x="1510" y="1289"/>
      <point x="1318" y="1052"/>
      <point x="1107" y="1053" type="qcurve" smooth="yes"/>
      <point x="938" y="1054"/>
      <point x="647" y="1165"/>
      <point x="591" y="1144" type="qcurve" smooth="yes"/>
      <point x="536" y="1123"/>
      <point x="521" y="862"/>
      <point x="520" y="710" type="qcurve"/>
      <point x="615" y="709" type="line"/>
      <point x="611" y="657"/>
      <point x="606" y="575"/>
      <point x="606" y="537" type="qcurve" smooth="yes"/>
      <point x="606" y="344"/>
      <point x="716" y="164"/>
    </contour>
  </outline>
</glyph>
<glyph name="ghe" format="2">
  <advance width="1236"/>
  <unicode hex="0433"/>
  <outline>
    <contour>
      <point x="932" y="884" type="line"/>
      <point x="710" y="884" type="line"/>
      <point x="707" y="550" type="line"/>
      <point x="710" y="212" type="line"/>
      <point x="872" y="177" type="line"/>
      <point x="872" y="0" type="line"/>
      <point x="35" y="0" type="line"/>
      <point x="35" y="177" type="line"/>
      <point x="183" y="212" type="line"/>
      <point x="185" y="550" type="line"/>
      <point x="183" y="888" type="line"/>
      <point x="35" y="923" type="line"/>
      <point x="35" y="1100" type="line"/>
      <point x="1186" y="1100" type="line"/>
      <point x="1206" y="586" type="line"/>
      <point x="1032" y="586" type="line"/>
    </contour>
  </outline>
</glyph>
<glyph name="te" format="2">
  <advance width="1390"/>
  <unicode hex="0442"/>
  <outline>
    <contour>
      <point x="1140" y="177" type="line"/>
      <point x="1140" y="0" type="line"/>
      <point x="249" y="0" type="line"/>
      <point x="249" y="177" type="line"/>
      <point x="431" y="212" type="line"/>
      <point x="434" y="550" type="line"/>
      <point x="431" y="884" type="line"/>
      <point x="284" y="884" type="line"/>
      <point x="184" y="586" type="line"/>
      <point x="10" y="586" type="line"/>
      <point x="30" y="1100" type="line"/>
      <point x="1360" y="1100" type="line"/>
      <point x="1380" y="586" type="line"/>
      <point x="1206" y="586" type="line"/>
      <point x="1106" y="884" type="line"/>
      <point x="958" y="884" type="line"/>
      <point x="956" y="550" type="line"/>
      <point x="958" y="212" type="line"/>
    </contour>
  </outline>
</glyph>
<glyph name="sha" format="2">
  <advance width="2475"/>
  <unicode hex="0448"/>
  <outline>
    <contour>
      <point x="185" y="550" type="line"/>
      <point x="183" y="888" type="line"/>
      <point x="35" y="923" type="line"/>
      <point x="35" y="1100" type="line"/>
      <point x="801" y="1100" type="line"/>
      <point x="801" y="923" type="line"/>
      <point x="709" y="888" type="line"/>
      <point x="707" y="550" type="line"/>
      <point x="709" y="216" type="line"/>
      <point x="974" y="216" type="line"/>
      <point x="976" y="550" type="line"/>
      <point x="975" y="888" type="line"/>
      <point x="882" y="923" type="line"/>
      <point x="882" y="1100" type="line"/>
      <point x="1594" y="1100" type="line"/>
      <point x="1594" y="923" type="line"/>
      <point x="1501" y="888" type="line"/>
      <point x="1498" y="550" type="line"/>
      <point x="1500" y="216" type="line"/>
      <point x="1765" y="216" type="line"/>
      <point x="1767" y="550" type="line"/>
      <point x="1765" y="888" type="line"/>
      <point x="1673" y="923" type="line"/>
      <point x="1673" y="1100" type="line"/>
      <point x="2440" y="1100" type="line"/>
      <point x="2440" y="923" type="line"/>
      <point x="2291" y="888" type="line"/>
      <point x="2289" y="550" type="line"/>
      <point x="2291" y="212" type="line"/>
      <point x="2440" y="177" type="line"/>
      <point x="2440" y="0" type="line"/>
      <point x="35" y="0" type="line"/>
      <point x="35" y="177" type="line"/>
      <point x="183" y="212" type="line"/>
    </contour>
  </outline>
</glyph>
<glyph name="nje" format="2">
  <advance width="2274"/>
  <unicode hex="045A"/>
  <outline>
    <contour>
      <point x="445" y="680" type="line"/>
      <point x="866" y="677" type="line"/>
      <point x="1269" y="680" type="line"/>
      <point x="1269" y="463" type="line"/>
      <point x="866" y="465" type="line"/>
      <point x="445" y="463" type="line"/>
    </contour>
    <contour>
      <point x="185" y="550" type="line"/>
      <point x="183" y="888" type="line"/>
      <point x="35" y="923" type="line"/>
      <point x="35" y="1100" type="line"/>
      <point x="815" y="1100" type="line"/>
      <point x="815" y="923" type="line"/>
      <point x="708" y="888" type="line"/>
      <point x="705" y="550" type="line"/>
      <point x="708" y="212" type="line"/>
      <point x="815" y="177" type="line"/>
      <point x="815" y="0" type="line"/>
      <point x="35" y="0" type="line"/>
      <point x="35" y="177" type="line"/>
      <point x="183" y="212" type="line"/>
    </contour>
    <contour>
      <point x="1532" y="211" type="line"/>
      <point x="1594" y="211" type="line" smooth="yes"/>
      <point x="1695.9627329193" y="211"/>
      <point x="1765" y="271"/>
      <point x="1765" y="339" type="qcurve" smooth="yes"/>
      <point x="1765" y="408"/>
      <point x="1698.6643356643" y="474"/>
      <point x="1612" y="474" type="qcurve" smooth="yes"/>
      <point x="1269" y="474" type="line"/>
      <point x="1269" y="679" type="line"/>
      <point x="1774" y="679" type="line" smooth="yes"/>
      <point x="2010.9325842697" y="679"/>
      <point x="2269" y="518"/>
      <point x="2269" y="341" type="qcurve" smooth="yes"/>
      <point x="2269" y="169"/>
      <point x="2022.0561797753" y="0"/>
      <point x="1774" y="0" type="qcurve" smooth="yes"/>
      <point x="899" y="0" type="line"/>
      <point x="899" y="177" type="line"/>
      <point x="1007" y="212" type="line"/>
      <point x="1009" y="560" type="line"/>
      <point x="1007" y="888" type="line"/>
      <point x="899" y="923" type="line"/>
      <point x="899" y="1100" type="line"/>
      <point x="1679" y="1100" type="line"/>
      <point x="1679" y="923" type="line"/>
      <point x="1532" y="888" type="line"/>
      <point x="1529" y="570" type="line"/>
    </contour>
  </outline>
</glyph>
<glyph name="endescender" format="2">
  <advance width="1749"/>
  <unicode hex="04A3"/>
  <outline>
    <contour>
      <point x="445" y="650" type="line"/>
      <point x="868" y="647" type="line"/>
      <point x="1296" y="650" type="line"/>
      <point x="1296" y="433" type="line"/>
      <point x="868" y="435" type="line"/>
      <point x="445" y="433" type="line"/>
    </contour>
    <contour>
      <point x="185" y="550" type="line"/>
      <point x="183" y="888" type="line"/>
      <point x="35" y="923" type="line"/>
      <point x="35" y="1100" type="line"/>
      <point x="825" y="1100" type="line"/>
      <point x="825" y="923" type="line"/>
      <point x="708" y="888" type="line"/>
      <point x="705" y="550" type="line"/>
      <point x="708" y="212" type="line"/>
      <point x="825" y="177" type="line"/>
      <point x="825" y="0" type="line"/>
      <point x="35" y="0" type="line"/>
      <point x="35" y="177" type="line"/>
      <point x="183" y="212" type="line"/>
    </contour>
    <contour>
      <point x="1556" y="216" type="line"/>
      <point x="1704" y="216" type="line"/>
      <point x="1714" y="-318" type="line"/>
      <point x="1532" y="-318" type="line"/>
      <point x="1442" y="0" type="line"/>
      <point x="914" y="0" type="line"/>
      <point x="914" y="177" type="line"/>
      <point x="1031" y="212" type="line"/>
      <point x="1034" y="550" type="line"/>
      <point x="1031" y="888" type="line"/>
      <point x="914" y="923" type="line"/>
      <point x="914" y="1100" type="line"/>
      <point x="1704" y="1100" type="line"/>
      <point x="1704" y="923" type="line"/>
      <point x="1556" y="888" type="line"/>
      <point x="1554" y="550" type="line"/>
    </contour>
  </outline>
</glyph>
<glyph name="hadescender" format="2">
  <advance width="1443"/>
  <unicode hex="04B3"/>
  <outline>
    <contour>
      <point x="1052" y="216" type="line"/>
      <point x="1433" y="216" type="line"/>
      <point x="1443" y="-318" type="line"/>
      <point x="1261" y="-318" type="line"/>
      <point x="1172" y="0" type="line"/>
      <point x="1052" y="0" type="line"/>
    </contour>
    <contour>
      <point x="-32" y="0" type="line"/>
      <point x="-32" y="190" type="line"/>
      <point x="127" y="226" type="line"/>
      <point x="546" y="582" type="line"/>
      <point x="725" y="579" type="line"/>
      <point x="1025" y="879" type="line"/>
      <point x="946" y="909" type="line"/>
      <point x="946" y="1100" type="line"/>
      <point x="1407" y="1100" type="line"/>
      <point x="1407" y="909" type="line"/>
      <point x="1258" y="874" type="line"/>
      <point x="877" y="505" type="line"/>
      <point x="703" y="512" type="line"/>
      <point x="374" y="225" type="line"/>
      <point x="460" y="190" type="line"/>
      <point x="460" y="0" type="line"/>
    </contour>
    <contour>
      <point x="-20" y="909" type="line"/>
      <point x="-20" y="1100" type="line"/>
      <point x="791" y="1100" type="line"/>
      <point x="791" y="909" type="line"/>
      <point x="721" y="872" type="line"/>
      <point x="943" y="614" type="line"/>
      <point x="1363" y="164" type="line"/>
      <point x="1363" y="0" type="line"/>
      <point x="592" y="0" type="line"/>
      <point x="592" y="190" type="line"/>
      <point x="684" y="225" type="line"/>
      <point x="472" y="454" type="line"/>
      <point x="99" y="874" type="line"/>
    </contour>
  </outline>
</glyph>
<glyph name="Cheverticalstroke-cy" format="2">
  <advance width="2003"/>
  <unicode hex="04B8"/>
  <outline>
    <contour>
      <point x="1130" y="1145" type="line"/>
      <point x="1130" y="289" type="line"/>
      <point x="900" y="289" type="line"/>
      <point x="900" y="1145" type="line"/>
    </contour>
    <contour>
      <point x="1063" y="0" type="line"/>
      <point x="1063" y="180" type="line"/>
      <point x="1239" y="215" type="line"/>
      <point x="1241" y="754" type="line"/>
      <point x="1239" y="1272" type="line"/>
      <point x="1083" y="1306" type="line"/>
      <point x="1083" y="1500" type="line"/>
      <point x="1961" y="1500" type="line"/>
      <point x="1961" y="1306" type="line"/>
      <point x="1783" y="1272" type="line"/>
      <point x="1781" y="754" type="line"/>
      <point x="1783" y="215" type="line"/>
      <point x="1961" y="180" type="line"/>
      <point x="1961" y="0" type="line"/>
    </contour>
    <contour>
      <point x="55" y="1306" type="line"/>
      <point x="55" y="1500" type="line"/>
      <point x="934" y="1500" type="line"/>
      <point x="934" y="1306" type="line"/>
      <point x="777" y="1272" type="line"/>
      <point x="775" y="1060" type="line" smooth="yes"/>
      <point x="774" y="910"/>
      <point x="865" y="779"/>
      <point x="1029" y="779" type="qcurve" smooth="yes"/>
      <point x="1117" y="779"/>
      <point x="1374" y="809"/>
      <point x="1511" y="858" type="qcurve"/>
      <point x="1511" y="651" type="line"/>
      <point x="1375" y="602"/>
      <point x="1086" y="561"/>
      <point x="855" y="561" type="qcurve" smooth="yes"/>
      <point x="551" y="561"/>
      <point x="240.840301967" y="778.0609760772"/>
      <point x="237" y="1020" type="qcurve" smooth="yes"/>
      <point x="233" y="1272" type="line"/>
    </contour>
  </outline>
</glyph>
<glyph name="horizontalbar" format="2">
	<unicode hex="2015"/>
	<advance width="991"/>
	<outline>
		<contour>
			<point x="580" y="612" type="line"/>
			<point x="33" y="612" type="line"/>
			<point x="39" y="828" type="line"/>
			<point x="598" y="828" type="line"/>
			<point x="981" y="828" type="line"/>
			<point x="979" y="612" type="line"/>
		</contour>
	</outline>
</glyph>
<glyph name="foursuperior" format="2">
	<unicode hex="2074"/>
	<advance width="928"/>
	<outline>
		<contour>
			<point x="-27" y="1035" type="line"/>
			<point x="417" y="1550" type="line"/>
			<point x="676" y="1527" type="line"/>
			<point x="718" y="1489" type="line"/>
			<point x="721" y="958" type="line"/>
			<point x="721" y="789" type="line"/>
			<point x="862" y="763" type="line"/>
			<point x="862" y="621" type="line"/>
			<point x="260" y="621" type="line"/>
			<point x="260" y="763" type="line"/>
			<point x="408" y="789" type="line"/>
			<point x="415" y="957" type="line"/>
			<point x="421" y="1336" type="line"/>
			<point x="177" y="1046" type="line"/>
			<point x="178" y="1033" type="line"/>
			<point x="897" y="1029" type="line"/>
			<point x="897" y="891" type="line"/>
			<point x="0" y="889" type="line"/>
		</contour>
	</outline>
</glyph>
<glyph name="lira" format="2">
	<unicode hex="20A4"/>
	<advance width="1190"/>
	<outline>
		<contour>
			<point x="840" y="580" type="qcurve" smooth="yes"/>
			<point x="840" y="483"/>
			<point x="701" y="312"/>
			<point x="586" y="271" type="qcurve"/>
			<point x="594" y="258" type="line"/>
			<point x="954" y="258" type="line"/>
			<point x="1068" y="422" type="line"/>
			<point x="1230" y="422" type="line"/>
			<point x="1131" y="0" type="line"/>
			<point x="70" y="0" type="line"/>
			<point x="-3" y="146" type="line"/>
			<point x="85" y="271" type="line"/>
			<point x="272" y="260"/>
			<point x="430" y="379"/>
			<point x="430" y="494" type="qcurve" smooth="yes"/>
			<point x="430" y="610"/>
			<point x="322" y="735"/>
			<point x="260" y="790" type="qcurve" smooth="yes"/>
			<point x="178" y="866"/>
			<point x="113" y="1012"/>
			<point x="113" y="1139" type="qcurve" smooth="yes"/>
			<point x="113" y="1324"/>
			<point x="388" y="1536"/>
			<point x="622" y="1536" type="qcurve" smooth="yes"/>
			<point x="791" y="1536"/>
			<point x="1031" y="1441"/>
			<point x="1113" y="1373" type="qcurve"/>
			<point x="1007" y="1157" type="line"/>
			<point x="954" y="1199"/>
			<point x="823" y="1246"/>
			<point x="747" y="1246" type="qcurve" smooth="yes"/>
			<point x="666" y="1246"/>
			<point x="585" y="1182"/>
			<point x="585" y="1120" type="qcurve" smooth="yes"/>
			<point x="585" y="1058"/>
			<point x="623" y="961"/>
			<point x="702" y="876" type="qcurve" smooth="yes"/>
			<point x="793" y="779"/>
			<point x="840" y="653"/>
		</contour>
		<contour>
			<point x="131" y="461" type="line"/>
			<point x="87" y="682" type="line"/>
			<point x="1041" y="682" type="line"/>
			<point x="1001" y="461" type="line"/>
		</contour>
		<contour>
			<point x="61" y="776" type="line"/>
			<point x="17" y="997" type="line"/>
			<point x="1071" y="997" type="line"/>
			<point x="1031" y="776" type="line"/>
		</contour>
	</outline>
</glyph>
<glyph name="tenge" format="2">
  <advance width="1567"/>
  <unicode hex="20B8"/>
  <outline>
    <contour>
      <point x="41" y="1294" type="line"/>
      <point x="65" y="1500" type="line"/>
      <point x="1504" y="1500" type="line"/>
      <point x="1528" y="1294" type="line"/>
    </contour>
    <contour>
      <point x="43" y="678" type="line"/>
      <point x="43" y="1136" type="line"/>
      <point x="1524" y="1136" type="line"/>
      <point x="1524" y="678" type="line"/>
      <point x="1328" y="678" type="line"/>
      <point x="1288" y="932" type="line"/>
      <point x="1066" y="932" type="line"/>
      <point x="1053" y="916" type="line"/>
      <point x="1054" y="357" type="line"/>
      <point x="1055" y="215" type="line"/>
      <point x="1244" y="180" type="line"/>
      <point x="1244" y="0" type="line"/>
      <point x="321" y="0" type="line"/>
      <point x="321" y="180" type="line"/>
      <point x="510" y="215" type="line"/>
      <point x="512" y="357" type="line"/>
      <point x="513" y="916" type="line"/>
      <point x="498" y="932" type="line"/>
      <point x="278" y="932" type="line"/>
      <point x="238" y="678" type="line"/>
    </contour>
  </outline>
</glyph>
<glyph name="trademark" format="2">
	<unicode hex="2122"/>
	<advance width="2263"/>
	<outline>
		<contour>
			<point x="40" y="1175" type="line"/>
			<point x="40" y="1500" type="line"/>
			<point x="897" y="1500" type="line"/>
			<point x="897" y="1175" type="line"/>
			<point x="775" y="1175" type="line"/>
			<point x="738" y="1347" type="line"/>
			<point x="604" y="1347" type="line"/>
			<point x="574" y="1326" type="line"/>
			<point x="571" y="1025" type="line"/>
			<point x="571" y="818" type="line"/>
			<point x="698" y="780" type="line"/>
			<point x="698" y="648" type="line"/>
			<point x="238" y="648" type="line"/>
			<point x="238" y="780" type="line"/>
			<point x="366" y="818" type="line"/>
			<point x="366" y="1025" type="line"/>
			<point x="364" y="1326" type="line"/>
			<point x="344" y="1347" type="line"/>
			<point x="200" y="1347" type="line"/>
			<point x="162" y="1175" type="line"/>
		</contour>
		<contour>
			<point x="933" y="650" type="line"/>
			<point x="933" y="779" type="line"/>
			<point x="1059" y="816" type="line"/>
			<point x="1061" y="1027" type="line"/>
			<point x="1059" y="1319" type="line"/>
			<point x="933" y="1355" type="line"/>
			<point x="933" y="1500" type="line"/>
			<point x="1355" y="1500" type="line"/>
			<point x="1595" y="905" type="line"/>
			<point x="1830" y="1500" type="line"/>
			<point x="2209" y="1500" type="line"/>
			<point x="2209" y="1355" type="line"/>
			<point x="2094" y="1319" type="line"/>
			<point x="2092" y="1025" type="line"/>
			<point x="2094" y="814" type="line"/>
			<point x="2209" y="777" type="line"/>
			<point x="2209" y="648" type="line"/>
			<point x="1790" y="648" type="line"/>
			<point x="1790" y="777" type="line"/>
			<point x="1893" y="814" type="line"/>
			<point x="1896" y="1025" type="line"/>
			<point x="1893" y="1294" type="line"/>
			<point x="1644" y="639" type="line"/>
			<point x="1485" y="639" type="line"/>
			<point x="1208" y="1310" type="line"/>
			<point x="1206" y="1027" type="line"/>
			<point x="1208" y="816" type="line"/>
			<point x="1333" y="779" type="line"/>
			<point x="1333" y="650" type="line"/>
		</contour>
	</outline>
</glyph>
<glyph name="Zhe.bgr" format="2">
  <advance width="2699"/>
  <outline>
    <contour>
      <point x="916" y="0" type="line"/>
      <point x="916" y="180" type="line"/>
      <point x="1062" y="215" type="line"/>
      <point x="1064" y="754" type="line"/>
      <point x="1062" y="1272" type="line"/>
      <point x="874" y="1306" type="line"/>
      <point x="874" y="1500" type="line"/>
      <point x="1793" y="1500" type="line"/>
      <point x="1793" y="1306" type="line"/>
      <point x="1607" y="1272" type="line"/>
      <point x="1605" y="754" type="line"/>
      <point x="1607" y="215" type="line"/>
      <point x="1753" y="180" type="line"/>
      <point x="1753" y="0" type="line"/>
    </contour>
    <contour>
      <point x="1335" y="224" type="line"/>
      <point x="1335" y="480" type="line"/>
      <point x="2106" y="1284" type="line"/>
      <point x="1984" y="1307" type="line"/>
      <point x="1984" y="1500" type="line"/>
      <point x="2556" y="1500" type="line"/>
      <point x="2556" y="1307" type="line"/>
      <point x="2358" y="1274" type="line"/>
      <point x="1940" y="859" type="line"/>
      <point x="1898" y="816" type="line"/>
    </contour>
    <contour>
      <point x="1691" y="740" type="line"/>
      <point x="2068" y="1117" type="line"/>
      <point x="2554" y="215" type="line"/>
      <point x="2699" y="180" type="line"/>
      <point x="2699" y="0" type="line"/>
      <point x="1872" y="0" type="line"/>
      <point x="1872" y="180" type="line"/>
      <point x="1971" y="215" type="line"/>
    </contour>
    <contour>
      <point x="1335" y="216" type="line"/>
      <point x="772" y="808" type="line"/>
      <point x="692" y="859" type="line"/>
      <point x="274" y="1274" type="line"/>
      <point x="84" y="1307" type="line"/>
      <point x="84" y="1500" type="line"/>
      <point x="685" y="1500" type="line"/>
      <point x="685" y="1307" type="line"/>
      <point x="563" y="1284" type="line"/>
      <point x="1335" y="480" type="line"/>
    </contour>
    <contour>
      <point x="978" y="740" type="line"/>
      <point x="698" y="215" type="line"/>
      <point x="797" y="180" type="line"/>
      <point x="797" y="0" type="line"/>
      <point x="0" y="0" type="line"/>
      <point x="0" y="180" type="line"/>
      <point x="161" y="215" type="line"/>
      <point x="647" y="1117" type="line"/>
    </contour>
  </outline>
</glyph>
<glyph name="brevecomb.case" format="2">
	<advance width="1024"/>
	<outline>
		<contour>
			<point x="769" y="1994" type="qcurve"/>
			<point x="926" y="1962" type="line"/>
			<point x="913" y="1829"/>
			<point x="696" y="1619"/>
			<point x="513" y="1619" type="qcurve" smooth="yes"/>
			<point x="313" y="1619"/>
			<point x="101" y="1818"/>
			<point x="97" y="1958" type="qcurve"/>
			<point x="252" y="1995" type="line"/>
			<point x="277" y="1931"/>
			<point x="396" y="1829"/>
			<point x="513" y="1829" type="qcurve" smooth="yes"/>
			<point x="629" y="1829"/>
			<point x="748" y="1938"/>
		</contour>
	</outline>
</glyph>
<glyph name="dotbelowcomb.case" format="2">
	<advance width="1024"/>
	<outline>
		<contour>
			<point x="335" y="-329" type="qcurve" smooth="yes"/>
			<point x="335" y="-247"/>
			<point x="426" y="-152"/>
			<point x="513" y="-152" type="qcurve" smooth="yes"/>
			<point x="595" y="-152"/>
			<point x="691" y="-251"/>
			<point x="691" y="-329" type="qcurve" smooth="yes"/>
			<point x="691" y="-410"/>
			<point x="602" y="-503"/>
			<point x="513" y="-503" type="qcurve" smooth="yes"/>
			<point x="430" y="-503"/>
			<point x="335" y="-407"/>
		</contour>
	</outline>
</glyph>
<glyph name="eight.tab" format="2">
	<advance width="1423"/>
	<outline>
		<contour>
			<point x="23" y="351" type="qcurve" smooth="yes"/>
			<point x="23" y="511"/>
			<point x="310" y="747"/>
			<point x="587" y="827" type="qcurve"/>
			<point x="716" y="748" type="line"/>
			<point x="636" y="662"/>
			<point x="537" y="459"/>
			<point x="537" y="336" type="qcurve" smooth="yes"/>
			<point x="537" y="236"/>
			<point x="625" y="154"/>
			<point x="697" y="154" type="qcurve" smooth="yes"/>
			<point x="786" y="154"/>
			<point x="876" y="260"/>
			<point x="876" y="346" type="qcurve" smooth="yes"/>
			<point x="876" y="434"/>
			<point x="737" y="573"/>
			<point x="567" y="639" type="qcurve" smooth="yes"/>
			<point x="316" y="732"/>
			<point x="126" y="963"/>
			<point x="130" y="1137" type="qcurve" smooth="yes"/>
			<point x="134" y="1308"/>
			<point x="417" y="1515"/>
			<point x="704" y="1515" type="qcurve" smooth="yes"/>
			<point x="989" y="1515"/>
			<point x="1279" y="1355"/>
			<point x="1279" y="1199" type="qcurve" smooth="yes"/>
			<point x="1279" y="1066"/>
			<point x="1033" y="851"/>
			<point x="829" y="783" type="qcurve"/>
			<point x="667" y="855" type="line"/>
			<point x="754" y="918"/>
			<point x="846" y="1098"/>
			<point x="846" y="1189" type="qcurve" smooth="yes"/>
			<point x="846" y="1260"/>
			<point x="763" y="1323"/>
			<point x="695" y="1323" type="qcurve" smooth="yes"/>
			<point x="633" y="1323"/>
			<point x="574" y="1273"/>
			<point x="574" y="1207" type="qcurve" smooth="yes"/>
			<point x="574" y="1125"/>
			<point x="683" y="1012"/>
			<point x="906" y="935" type="qcurve" smooth="yes"/>
			<point x="1134" y="857"/>
			<point x="1400" y="607"/>
			<point x="1400" y="414" type="qcurve" smooth="yes"/>
			<point x="1400" y="223"/>
			<point x="1050" y="-30"/>
			<point x="702" y="-30" type="qcurve" smooth="yes"/>
			<point x="379" y="-30"/>
			<point x="23" y="174"/>
		</contour>
	</outline>
</glyph>
<glyph name="five.tab" format="2">
	<advance width="1423"/>
	<outline>
		<contour>
			<point x="68" y="79" type="qcurve"/>
			<point x="147" y="279" type="line"/>
			<point x="232" y="217"/>
			<point x="345" y="207"/>
			<point x="414" y="203" type="qcurve" smooth="yes"/>
			<point x="531" y="199"/>
			<point x="672" y="342"/>
			<point x="672" y="491" type="qcurve" smooth="yes"/>
			<point x="672" y="613"/>
			<point x="532" y="746"/>
			<point x="348" y="726" type="qcurve" smooth="yes"/>
			<point x="324" y="722" type="line"/>
			<point x="248" y="820" type="line"/>
			<point x="280" y="1467" type="line"/>
			<point x="306" y="1500" type="line"/>
			<point x="1203" y="1500" type="line"/>
			<point x="1185" y="1146" type="line"/>
			<point x="467" y="1146" type="line"/>
			<point x="453" y="1128" type="line"/>
			<point x="476" y="892" type="line"/>
			<point x="595" y="926" type="line"/>
			<point x="977" y="970"/>
			<point x="1247" y="700"/>
			<point x="1247" y="460" type="qcurve" smooth="yes"/>
			<point x="1247" y="227"/>
			<point x="897" y="-30"/>
			<point x="576" y="-30" type="qcurve" smooth="yes"/>
			<point x="364" y="-30"/>
			<point x="132" y="31"/>
		</contour>
	</outline>
</glyph>
<glyph name="four.tab" format="2">
	<advance width="1423"/>
	<outline>
		<contour>
			<point x="46" y="536" type="line"/>
			<point x="706" y="1468" type="line"/>
			<point x="1077" y="1460" type="line"/>
			<point x="1154" y="1440" type="line"/>
			<point x="1137" y="523" type="line"/>
			<point x="1148" y="209" type="line"/>
			<point x="1351" y="174" type="line"/>
			<point x="1351" y="0" type="line"/>
			<point x="380" y="0" type="line"/>
			<point x="380" y="174" type="line"/>
			<point x="630" y="209" type="line"/>
			<point x="634" y="521" type="line"/>
			<point x="628" y="1056" type="line"/>
			<point x="312" y="607" type="line"/>
			<point x="311" y="588" type="line"/>
			<point x="1371" y="614" type="line"/>
			<point x="1371" y="422" type="line"/>
			<point x="66" y="371" type="line"/>
		</contour>
	</outline>
</glyph>
<glyph name="hungarumlautcomb.case" format="2">
	<advance width="1024"/>
	<outline>
		<contour>
			<point x="676" y="1974" type="qcurve" smooth="yes"/>
			<point x="676" y="1924"/>
			<point x="616" y="1843"/>
			<point x="567" y="1810" type="qcurve" smooth="yes"/>
			<point x="276" y="1614" type="line"/>
			<point x="157" y="1713" type="line"/>
			<point x="350" y="1972" type="line" smooth="yes"/>
			<point x="391" y="2028"/>
			<point x="483" y="2094"/>
			<point x="539" y="2094" type="qcurve" smooth="yes"/>
			<point x="596" y="2094"/>
			<point x="676" y="2013"/>
		</contour>
		<contour>
			<point x="1110" y="1974" type="qcurve" smooth="yes"/>
			<point x="1110" y="1924"/>
			<point x="1050" y="1842"/>
			<point x="1001" y="1810" type="qcurve" smooth="yes"/>
			<point x="704" y="1614" type="line"/>
			<point x="592" y="1713" type="line"/>
			<point x="777" y="1972" type="line" smooth="yes"/>
			<point x="817" y="2028"/>
			<point x="917" y="2094"/>
			<point x="973" y="2094" type="qcurve" smooth="yes"/>
			<point x="1030" y="2094"/>
			<point x="1110" y="2013"/>
		</contour>
	</outline>
</glyph>
<glyph name="zhe.bgr" format="2">
  <advance width="2273"/>
  <outline>
    <contour>
      <point x="746" y="0" type="line"/>
      <point x="746" y="177" type="line"/>
      <point x="873" y="212" type="line"/>
      <point x="875" y="557" type="line"/>
      <point x="872" y="1279" type="line"/>
      <point x="724" y="1309" type="line"/>
      <point x="724" y="1500" type="line"/>
      <point x="1311" y="1534" type="line"/>
      <point x="1343" y="1534" type="line"/>
      <point x="1400" y="1487" type="line"/>
      <point x="1403" y="577" type="line"/>
      <point x="1400" y="212" type="line"/>
      <point x="1527" y="177" type="line"/>
      <point x="1527" y="0" type="line"/>
    </contour>
    <contour>
      <point x="1136" y="168" type="line"/>
      <point x="1136" y="392" type="line"/>
      <point x="1694" y="873" type="line"/>
      <point x="1579" y="903" type="line"/>
      <point x="1579" y="1100" type="line"/>
      <point x="2209" y="1100" type="line"/>
      <point x="2209" y="903" type="line"/>
      <point x="1995" y="868" type="line"/>
    </contour>
    <contour>
      <point x="1455" y="549" type="line"/>
      <point x="1834" y="897" type="line"/>
      <point x="2159" y="219" type="line"/>
      <point x="2323" y="177" type="line"/>
      <point x="2323" y="0" type="line"/>
      <point x="1711" y="0" type="line"/>
      <point x="1673" y="55" type="line"/>
      <point x="1629" y="145" type="line"/>
    </contour>
    <contour>
      <point x="1136" y="168" type="line"/>
      <point x="240" y="868" type="line"/>
      <point x="44" y="903" type="line"/>
      <point x="44" y="1100" type="line"/>
      <point x="695" y="1100" type="line"/>
      <point x="695" y="903" type="line"/>
      <point x="580" y="873" type="line"/>
      <point x="1136" y="393" type="line"/>
    </contour>
    <contour>
      <point x="818" y="549" type="line"/>
      <point x="644" y="145" type="line"/>
      <point x="600" y="55" type="line"/>
      <point x="562" y="0" type="line"/>
      <point x="-50" y="0" type="line"/>
      <point x="-50" y="177" type="line"/>
      <point x="111" y="219" type="line"/>
      <point x="456" y="897" type="line"/>
    </contour>
  </outline>
</glyph>
